#!OML:ASF X:\für Bonn\!DataBase\2005_08_12_Daniel\c3d\Daniel.ASF
:FULLY-SPECIFIED
:DEGREES
328
root 14.5315 16.9056 -11.6596 176.605 32.8789 -182.19
lowerback 13.7819 4.47226 -8.80393
upperback 1.19256 4.87974 -7.26864
thorax -6.50302 2.83857 -3.81912
lowerneck -2.61103 -1.197 -12.8367
upperneck 19.2842 0.479588 1.18394
head 6.34923 -0.141968 2.58403
rclavicle 2.78299e-015 2.22639e-014
rhumerus -33.349 10.7335 -102.028
rradius 27.5643
rwrist 14.5699
rhand -12.1715 18.461
rfingers 7.12502
rthumb 13.8917 -11.055
lclavicle 2.78299e-015 2.22639e-014
lhumerus -45.3235 38.1002 53.436
lradius 22.189
lwrist -25.5445
lhand -8.62421 -4.62967
lfingers 7.12502
lthumb 17.3081 24.6196
rfemur 11.6588 -2.42661 21.0436
rtibia 43.8119
rfoot 23.5168 11.7449
rtoes -15.5498
lfemur -33.9262 -2.18013 -24.9132
ltibia 45.2356
lfoot -10.7237 7.35577
ltoes 0.791117
329
root 14.6412 16.9223 -11.8243 176.109 32.4596 -182.586
lowerback 14.0155 4.34429 -9.12156
upperback 1.24473 4.65365 -7.33711
thorax -6.59149 2.74658 -3.695
lowerneck -2.36586 -1.1129 -13.2756
upperneck 19.1562 0.579392 1.31595
head 6.26242 -0.104202 2.70137
rclavicle -1.11319e-014 -1.04958e-013
rhumerus -33.6314 11.1098 -102.169
rradius 27.7733
rwrist 14.2755
rhand -12.2958 18.4023
rfingers 7.12502
rthumb 13.7719 -11.1219
lclavicle -1.11319e-014 -1.04958e-013
lhumerus -45.4989 39.0091 52.6869
lradius 21.6981
lwrist -27.0326
lhand -8.53618 -4.2848
lfingers 7.12502
lthumb 17.3929 24.957
rfemur 9.95724 -2.87785 20.4198
rtibia 47.0938
rfoot 21.8614 11.3151
rtoes -17.5971
lfemur -33.0357 -1.8663 -25.4642
ltibia 45.5237
lfoot -11.1078 6.57412
ltoes 0.362586
330
root 14.7502 16.9388 -11.9887 175.654 32.053 -182.928
lowerback 14.1753 4.21883 -9.39236
upperback 1.34104 4.45342 -7.39176
thorax -6.58685 2.66463 -3.57405
lowerneck -2.25975 -1.06805 -13.5049
upperneck 19.0868 0.657555 1.27681
head 6.22007 -0.0782502 2.7291
rclavicle -3.89618e-014 -4.77083e-014
rhumerus -33.7909 11.3536 -102.214
rradius 27.9363
rwrist 14.0559
rhand -12.4127 18.3022
rfingers 7.12502
rthumb 13.6593 -11.2296
lclavicle -3.89618e-014 -4.77083e-014
lhumerus -45.6421 40.0541 52.009
lradius 21.4049
lwrist -28.4877
lhand -8.26441 -3.85655
lfingers 7.12502
lthumb 17.6544 25.362
rfemur 8.28739 -3.29463 19.8563
rtibia 50.1887
rfoot 19.7497 11.0775
rtoes -19.4578
lfemur -32.1416 -1.61569 -25.9221
ltibia 45.7827
lfoot -11.5564 5.90198
ltoes 0.0414395
331
root 14.8572 16.954 -12.1493 175.202 31.6 -183.223
lowerback 14.3753 4.09577 -9.55172
upperback 1.44806 4.27056 -7.47102
thorax -6.58171 2.58912 -3.5465
lowerneck -2.10205 -1.04232 -13.7068
upperneck 18.9529 0.679338 1.28969
head 6.15082 -0.0735247 2.76436
rclavicle -3.77691e-014 -1.59028e-013
rhumerus -33.8791 11.3892 -102.193
rradius 27.997
rwrist 13.9522
rhand -12.5321 18.2612
rfingers 7.12502
rthumb 13.5442 -11.2782
lclavicle -3.77691e-014 -1.59028e-013
lhumerus -45.5158 40.6938 51.7388
lradius 21.225
lwrist -29.5485
lhand -7.93464 -3.43268
lfingers 7.12502
lthumb 17.9717 25.757
rfemur 6.68985 -3.69797 19.3435
rtibia 53.0445
rfoot 17.4696 10.8572
rtoes -20.5447
lfemur -31.2191 -1.33052 -26.3253
ltibia 46.0279
lfoot -12.0761 5.12654
ltoes -0.283493
332
root 14.962 16.9658 -12.3068 174.827 31.134 -183.455
lowerback 14.5599 3.96484 -9.67377
upperback 1.52819 4.07656 -7.52225
thorax -6.59652 2.50534 -3.5063
lowerneck -1.94331 -1.00699 -13.7788
upperneck 18.8559 0.731286 1.18482
head 6.09171 -0.0524737 2.74309
rclavicle -5.1684e-015 5.725e-014
rhumerus -33.9352 11.2651 -102.058
rradius 28.0407
rwrist 13.9567
rhand -12.5374 18.2458
rfingers 7.12502
rthumb 13.539 -11.2941
lclavicle -5.1684e-015 5.725e-014
lhumerus -45.5484 41.5494 51.3964
lradius 21.2199
lwrist -30.6404
lhand -7.6723 -3.15007
lfingers 7.12502
lthumb 18.2241 26.0162
rfemur 5.10848 -4.13864 18.8724
rtibia 55.6595
rfoot 15.1963 10.6343
rtoes -20.9262
lfemur -30.3498 -1.08627 -26.6493
ltibia 46.257
lfoot -12.6446 4.42716
ltoes -0.554315
